<svg width="40" height="40" viewBox="0 0 40 40" fill="none" xmlns="http://www.w3.org/2000/svg">
<g clip-path="url(#clip0)">
<path d="M8.14681 16.3924C8.14732 16.3922 8.14756 16.3921 8.14736 16.3922L8.14709 16.3923L8.14681 16.3924ZM8.14681 16.3924L8.14644 16.3926L8.14466 16.3935C8.14551 16.393 8.14629 16.3927 8.14681 16.3924ZM38.8281 34.3351H24.9967L25.5082 33.8236L25.5169 33.8149L25.5196 33.8122L25.5284 33.8034L37.4291 21.9024C39.1924 20.1394 39.1924 17.2703 37.4291 15.507L26.4242 4.50175C25.5725 3.65005 24.4365 3.18126 23.2263 3.18126C22.0162 3.18126 20.8802 3.65036 20.0288 4.50175L8.12316 16.4077C8.12314 16.4077 8.12312 16.4077 8.12309 16.4077C8.12041 16.41 8.11779 16.4126 8.11528 16.4152L1.22233 23.3082L1.29304 23.3789L1.22232 23.3082C-0.540657 25.0715 -0.540971 27.94 1.22232 29.7036L1.29304 29.6329L1.22233 29.7036L8.025 36.5063C8.26346 36.7447 8.58705 36.8789 8.92426 36.8789H38.8281C39.5306 36.8789 40.1 36.3095 40.1 35.607C40.1 34.9045 39.5306 34.3351 38.8281 34.3351ZM21.8273 6.30027C22.1983 5.92927 22.6949 5.72501 23.2263 5.72501C23.758 5.72501 24.2543 5.92925 24.6256 6.30027C24.6257 6.30028 24.6257 6.30029 24.6257 6.3003L35.6306 17.3055C36.4021 18.077 36.4021 19.3324 35.6306 20.1039L24.6191 31.1156L10.8156 17.3123L21.8273 6.30027ZM3.02116 27.9051C2.24967 27.1336 2.24966 25.8782 3.02085 25.1067C3.02086 25.1067 3.02086 25.1067 3.02087 25.1067L9.01703 19.1108L22.8203 32.9141L21.3993 34.3348H10.2246C10.2216 34.3348 10.2189 34.3349 10.2166 34.3351H9.45122L3.02116 27.9051ZM10.2068 34.3363C10.2065 34.3364 10.2068 34.3363 10.2073 34.3362L10.2068 34.3363Z" fill="black" stroke="black" stroke-width="0.2"/>
</g>
<defs>
<clipPath id="clip0">
<rect width="40" height="40" fill="white"/>
</clipPath>
</defs>
</svg>
