<svg width="42" height="40" viewBox="0 0 42 40" fill="none" xmlns="http://www.w3.org/2000/svg">
<path d="M6.19948 40H2.75586C2.40838 40 2.07516 39.8614 1.83025 39.6145L0.378822 38.1528C-0.126274 37.644 -0.126274 36.8234 0.378822 36.3145L3.44778 33.2235L2.73175 32.5071C2.48718 32.2626 2.34961 31.931 2.34961 31.5849C2.34961 31.2391 2.48718 30.9073 2.73175 30.6627C3.84588 29.5486 4.4719 28.4935 4.59214 27.5265C4.71646 26.5282 4.29323 25.5591 3.29798 24.5635C3.04085 24.3064 2.9026 23.9534 2.91687 23.59C2.93113 23.2265 3.09656 22.8855 3.37339 22.6491L7.36762 19.2401C10.3972 16.6545 13.4274 14.0686 16.4553 11.4833L18.405 9.81858C22.1156 6.65044 25.8293 3.47958 29.5426 0.312119C30.0602 -0.129458 30.8303 -0.0992268 31.3113 0.382092L41.3045 10.3753C41.7858 10.8563 41.816 11.6267 41.3745 12.1443L37.5375 16.6396C35.0922 19.5044 32.6469 22.3692 30.2032 25.2313L28.4872 27.2412C25.3367 30.931 22.1852 34.6219 19.0361 38.3118C18.7997 38.5886 18.4587 38.7541 18.0952 38.7683C17.7314 38.7823 17.3788 38.6447 17.1214 38.3872C15.834 37.0999 13.9773 36.001 11.0235 38.9545C10.5144 39.464 9.68861 39.464 9.1791 38.9545L8.477 38.2527L7.12509 39.6145C6.88019 39.8614 6.54697 40 6.19948 40ZM3.299 37.3913H5.65634L6.25723 36.7863L4.92197 35.4412L3.14241 37.2337L3.299 37.3913ZM5.45356 31.5397L10.1468 36.233C11.3459 35.2578 12.5595 34.681 13.7671 34.5146C13.7814 34.5126 13.796 34.5105 13.8102 34.5088L7.17774 27.876C7.01911 29.0978 6.44065 30.3261 5.45356 31.5397ZM6.44676 23.4558L18.2294 35.2384C20.9869 32.0081 23.7454 28.7772 26.5035 25.5472L28.2192 23.5373C30.3751 21.0125 32.5317 18.4857 34.689 15.9585L25.7274 6.99725C23.8507 8.59915 21.9743 10.2011 20.0986 11.8026L18.1492 13.4674C15.1207 16.053 12.0908 18.6389 9.06124 21.2245L6.44676 23.4558ZM27.7178 5.2982L36.388 13.9684L38.6078 11.3675L30.3191 3.07877C29.4519 3.81824 28.5847 4.55839 27.7178 5.2982Z" fill="black"/>
</svg>
