<svg width="40" height="40" viewBox="0 0 40 40" fill="none" xmlns="http://www.w3.org/2000/svg">
<path d="M29.375 28.2422H24.1077C24.0149 27.9144 23.8846 27.6025 23.721 27.3114L27.4463 23.5861C27.9041 23.1287 27.9041 22.3868 27.4463 21.929C26.9888 21.4713 26.2469 21.4713 25.7892 21.929L22.0639 25.654C21.7728 25.4904 21.4606 25.3604 21.1331 25.2676V1.17188C21.1331 0.524597 20.6082 0 19.9612 0C19.314 0 18.7894 0.524597 18.7894 1.17188V25.2676C18.4616 25.3604 18.1494 25.4904 17.8583 25.654L14.1327 21.9287C13.6752 21.4709 12.9333 21.4709 12.4756 21.9287C12.0178 22.3862 12.0178 23.1281 12.4756 23.5858L16.2009 27.3114C16.0373 27.6025 15.907 27.9144 15.8145 28.2422H10.5469C9.8996 28.2422 9.375 28.7668 9.375 29.4141C9.375 30.0613 9.8996 30.5859 10.5469 30.5859H15.8145C15.9073 30.9137 16.0376 31.2256 16.2009 31.5167L12.4756 35.2423C12.0178 35.7001 12.0178 36.442 12.4756 36.8994C12.7045 37.1283 13.0045 37.2427 13.3041 37.2427C13.6041 37.2427 13.9041 37.1283 14.133 36.8994L17.8583 33.1741C18.1494 33.3377 18.4616 33.468 18.7894 33.5605V38.8281C18.7894 39.4754 19.314 40 19.9612 40C20.6082 40 21.1331 39.4754 21.1331 38.8281V33.5605C21.4609 33.468 21.7728 33.3377 22.0639 33.1741L25.7892 36.8994C26.0181 37.1283 26.3181 37.2427 26.6177 37.2427C26.9177 37.2427 27.2177 37.1283 27.4463 36.8994C27.9041 36.442 27.9041 35.7001 27.4463 35.2423L23.721 31.517C23.8846 31.2259 24.0149 30.9137 24.1077 30.5859H29.375C30.0223 30.5859 30.5469 30.0613 30.5469 29.4141C30.5469 28.7668 30.0223 28.2422 29.375 28.2422ZM17.995 29.4141C17.995 28.3301 18.877 27.4481 19.9612 27.4481C21.0449 27.4481 21.9266 28.3295 21.9272 29.4131C21.9272 29.4135 21.9269 29.4138 21.9269 29.4141C21.9269 29.4144 21.9272 29.4147 21.9272 29.415C21.9266 30.4987 21.0446 31.38 19.9612 31.38C18.877 31.38 17.995 30.498 17.995 29.4141Z" fill="black"/>
</svg>
