<svg width="40" height="40" viewBox="0 0 40 40" fill="none" xmlns="http://www.w3.org/2000/svg">
<path d="M40 6.24454C39.9985 4.5734 39.3452 3.00327 38.1603 1.82316C35.7166 -0.61092 31.7438 -0.607563 29.3029 1.83231L4.08773 27.106C3.26756 27.9242 2.6415 28.9371 2.27711 30.0354L2.25357 30.1068L0 40L9.93748 37.7789L10.0115 37.7545C11.112 37.3907 12.1272 36.7664 12.9495 35.9457L38.168 10.669C39.3507 9.48673 40.0015 7.91538 40 6.24454ZM5.51074 35.5682L4.45701 34.5157L5.21788 31.1746L8.86572 34.8184L5.51074 35.5682ZM35.9532 8.46378L11.4705 33.0032L7.03706 28.5745L23.8077 11.7652L26.3615 14.3146L28.5732 12.1067L26.0148 9.55264L28.394 7.16831L30.957 9.7269L33.1687 7.51895L30.6011 4.95579L31.5173 4.03751C32.7386 2.81681 34.7277 2.81498 35.9511 4.03355C36.5441 4.62437 36.8712 5.4105 36.8721 6.24698C36.8728 7.08377 36.5472 7.87021 35.9532 8.46378Z" fill="black"/>
</svg>
