<svg width="58" height="55" viewBox="0 0 58 55" fill="none" xmlns="http://www.w3.org/2000/svg">
<path d="M6.05972 26.3044C12.9973 17.8434 24.5544 14.7516 34.8314 18.5239L37.8151 11.4417C38.1157 10.7281 38.8164 10.2643 39.5923 10.2689C40.3689 10.2716 41.0636 10.7452 41.3559 11.4631L50.5546 34.0548C50.9542 35.0363 50.484 36.1525 49.5025 36.5521L26.9108 45.7508C26.1929 46.0431 25.3687 45.8768 24.8243 45.323C24.2783 44.7728 24.1214 43.9456 24.4221 43.232L28.2509 34.1436C24.9677 32.3507 15.5668 28.8041 3.62047 37.6129C3.08862 38.0065 2.42177 38.0396 1.83538 37.7925C1.65697 37.7174 1.48908 37.6175 1.33076 37.4946C0.654607 36.9623 0.449335 35.9587 0.784161 35.1639C2.09154 31.957 3.86723 28.9763 6.05972 26.3044Z" fill="black"/>
</svg>
