<svg width="58" height="55" viewBox="0 0 58 55" fill="none" xmlns="http://www.w3.org/2000/svg">
<path d="M51.9278 26.3044C44.9902 17.8434 33.4331 14.7516 23.1561 18.5239L20.1724 11.4417C19.8718 10.7281 19.1711 10.2643 18.3952 10.2689C17.6186 10.2716 16.9239 10.7452 16.6316 11.4631L7.43288 34.0548C7.03327 35.0363 7.50352 36.1525 8.48497 36.5521L31.0767 45.7508C31.7946 46.0431 32.6188 45.8768 33.1632 45.323C33.7092 44.7728 33.866 43.9456 33.5654 43.232L29.7366 34.1436C33.0198 32.3507 42.4207 28.8041 54.367 37.6129C54.8989 38.0065 55.5657 38.0396 56.1521 37.7925C56.3305 37.7174 56.4984 37.6175 56.6567 37.4946C57.3329 36.9623 57.5382 35.9587 57.2033 35.1639C55.8959 31.957 54.1203 28.9763 51.9278 26.3044Z" fill="black"/>
</svg>
